<svg xmlns="http://www.w3.org/2000/svg" width="24" height="24" fill="#b90000"><path d="M19 0H5a5 5 0 0 0-5 5v14a5 5 0 0 0 5 5h14a5 5 0 0 0 5-5V5a5 5 0 0 0-5-5zm-2.812 16.444c-3.17 0-4.27-1.429-4.856-3.207l-.587-1.833c-.44-1.338-.953-2.382-2.565-2.382-1.119 0-2.255.806-2.255 3.061 0 1.759.898 2.859 2.163 2.859 1.429 0 2.382-1.063 2.382-1.063l.587 1.595s-.99.971-3.061.971C5.43 16.444 4 14.942 4 12.156c0-2.896 1.43-4.6 4.124-4.6 2.438 0 3.666.879 4.436 3.262l.605 1.833c.439 1.338 1.209 2.31 3.061 2.31 1.246 0 1.906-.275 1.906-.953 0-.532-.312-.917-1.246-1.136l-1.246-.293c-1.521-.367-2.127-1.155-2.127-2.401 0-1.998 1.613-2.621 3.262-2.621 1.871 0 3.006.678 3.152 2.328l-1.832.22c-.072-.788-.549-1.118-1.43-1.118-.807 0-1.301.367-1.301.99 0 .55.238.879 1.045 1.062l1.172.257c1.576.367 2.42 1.136 2.42 2.621-.001 1.831-1.54 2.527-3.813 2.527z"/></svg>